# xmcd
#
# Track frame offsets: 
#        150
#        12911
#        28845
#        46033
#        61698
#        77498
#        94656
#        112840
#        132904
#        150995
#
# Disc length: 2182 seconds
#
# Revision: 0
# Processed by: cddbd v1.5.1PL2 Copyright (c) Steve Scherf et al.
# Submitted via: ExactAudioCopy v0.95b3
#
DISCID=6408840a
DTITLE=Morris, Maren - Walk On
DYEAR=2005
DGENRE=Country
TTITLE0=Hit the Ground
TTITLE1=Girl I See
TTITLE2=Thank You
TTITLE3=This Livin
TTITLE4=Rain
TTITLE5=Popular Girl
TTITLE6=Barrelhouse Blues
TTITLE7=Better Days
TTITLE8=Walk On
TTITLE9=Help Wanted
EXTD=
EXTT0=
EXTT1=
EXTT2=
EXTT3=
EXTT4=
EXTT5=
EXTT6=
EXTT7=
EXTT8=
EXTT9=
PLAYORDER=
